<svg width="84" height="16" viewBox="0 0 84 16" fill="none" xmlns="http://www.w3.org/2000/svg">
<path d="M2.91106 6.25286C2.91106 5.63165 3.06257 5.06536 3.3656 4.554C3.66863 4.04264 4.07583 3.63544 4.58719 3.33241C5.09856 3.02938 5.66484 2.87786 6.28606 2.87786C6.82394 2.87786 7.32015 2.99339 7.77469 3.22445C8.23303 3.45551 8.61181 3.7718 8.91106 4.17332C9.2103 4.57104 9.39591 5.0218 9.46788 5.52559H8.09287C8.01712 5.13544 7.80689 4.81726 7.46219 4.57104C7.1175 4.32104 6.72545 4.19604 6.28606 4.19604C5.90727 4.19604 5.56257 4.28885 5.25197 4.47445C4.94136 4.66006 4.69325 4.90817 4.50765 5.21877C4.32204 5.52938 4.22924 5.87407 4.22924 6.25286C4.22924 6.63165 4.32204 6.97635 4.50765 7.28695C4.69325 7.59756 4.94136 7.84567 5.25197 8.03127C5.56257 8.21688 5.90727 8.30968 6.28606 8.30968C6.72545 8.30968 7.09666 8.18658 7.39969 7.94036C7.70651 7.69036 7.89969 7.37029 7.97924 6.98014H9.35424C9.28227 7.48392 9.10613 7.93658 8.82583 8.33809C8.54553 8.73582 8.18568 9.05021 7.74628 9.28127C7.31068 9.51233 6.82394 9.62786 6.28606 9.62786C5.66484 9.62786 5.09856 9.47635 4.58719 9.17332C4.07583 8.87029 3.66863 8.46309 3.3656 7.95173C3.06257 7.44036 2.91106 6.87407 2.91106 6.25286ZM6.22924 12.2529C5.40348 12.2529 4.62697 12.0976 3.89969 11.787C3.17621 11.4763 2.53795 11.0464 1.98492 10.4972C1.43568 9.94415 1.00386 9.30589 0.689466 8.58241C0.37886 7.85892 0.22545 7.08241 0.229238 6.25286C0.233026 5.42332 0.390223 4.6468 0.700829 3.92332C1.01522 3.19983 1.44704 2.56347 1.99628 2.01423C2.54553 1.4612 3.18189 1.02938 3.90538 0.718772C4.62886 0.408166 5.40348 0.252863 6.22924 0.252863C7.05878 0.252863 7.8353 0.408166 8.55878 0.718772C9.28606 1.02938 9.92242 1.4612 10.4679 2.01423C11.0171 2.56347 11.447 3.19983 11.7576 3.92332C12.0683 4.6468 12.2255 5.42332 12.2292 6.25286C12.233 7.08241 12.0796 7.85892 11.769 8.58241C11.4584 9.30589 11.0285 9.94415 10.4792 10.4972C9.93 11.0464 9.29174 11.4763 8.56447 11.787C7.83719 12.0976 7.05878 12.2529 6.22924 12.2529ZM6.22924 10.9347C6.87697 10.9347 7.48492 10.8135 8.0531 10.571C8.62128 10.3286 9.11939 9.99339 9.54742 9.56536C9.97545 9.13733 10.3107 8.64112 10.5531 8.07673C10.7955 7.50854 10.9148 6.90248 10.9111 6.25854C10.9073 5.61082 10.7842 5.00286 10.5417 4.43468C10.2993 3.8665 9.96409 3.36839 9.53606 2.94036C9.10803 2.51233 8.61181 2.1771 8.04742 1.93468C7.48303 1.69226 6.87697 1.57104 6.22924 1.57104C5.5853 1.57104 4.98113 1.69226 4.41674 1.93468C3.85234 2.1771 3.35613 2.51423 2.9281 2.94604C2.50007 3.37407 2.16295 3.87218 1.91674 4.44036C1.67431 5.00476 1.55121 5.61082 1.54742 6.25854C1.54363 6.8987 1.66295 7.50286 1.90537 8.07104C2.1478 8.63544 2.48303 9.13165 2.91106 9.55968C3.34287 9.98771 3.84098 10.3248 4.40538 10.571C4.97356 10.8135 5.58151 10.9347 6.22924 10.9347ZM14.7562 12.071V11.0483L18.5971 6.84377C19.0479 6.35135 19.4191 5.92332 19.7108 5.55968C20.0024 5.19226 20.2183 4.84756 20.3585 4.52559C20.5024 4.19983 20.5744 3.85892 20.5744 3.50286C20.5744 3.09377 20.4759 2.73961 20.279 2.44036C20.0858 2.14112 19.8206 1.91006 19.4835 1.74718C19.1464 1.5843 18.7676 1.50286 18.3471 1.50286C17.9002 1.50286 17.51 1.59567 17.1767 1.78127C16.8471 1.96309 16.5915 2.21877 16.4096 2.54832C16.2316 2.87786 16.1426 3.26423 16.1426 3.70741H14.8017C14.8017 3.02559 14.9589 2.42711 15.2733 1.91195C15.5877 1.3968 16.0157 0.995287 16.5574 0.707408C17.1028 0.419529 17.7146 0.27559 18.3926 0.27559C19.0744 0.27559 19.6786 0.419529 20.2051 0.707408C20.7316 0.995287 21.1445 1.38354 21.4437 1.87218C21.743 2.36082 21.8926 2.90438 21.8926 3.50286C21.8926 3.93089 21.8149 4.34945 21.6596 4.75854C21.5081 5.16385 21.243 5.6165 20.8642 6.1165C20.4892 6.61271 19.9683 7.21877 19.3017 7.93468L16.688 10.7301V10.821H22.0971V12.071H14.7562ZM28.2392 12.2301C27.3831 12.2301 26.654 11.9972 26.0517 11.5313C25.4494 11.0616 24.9892 10.3817 24.671 9.4915C24.3528 8.59756 24.1937 7.51801 24.1937 6.25286C24.1937 4.99529 24.3528 3.92142 24.671 3.03127C24.993 2.13733 25.4551 1.45551 26.0574 0.985817C26.6634 0.512332 27.3907 0.27559 28.2392 0.27559C29.0877 0.27559 29.813 0.512332 30.4153 0.985817C31.0214 1.45551 31.4835 2.13733 31.8017 3.03127C32.1237 3.92142 32.2846 4.99529 32.2846 6.25286C32.2846 7.51801 32.1255 8.59756 31.8074 9.4915C31.4892 10.3817 31.029 11.0616 30.4267 11.5313C29.8244 11.9972 29.0952 12.2301 28.2392 12.2301ZM28.2392 10.9801C29.0877 10.9801 29.7468 10.571 30.2165 9.75286C30.6862 8.93468 30.921 7.76801 30.921 6.25286C30.921 5.24529 30.813 4.38733 30.5971 3.679C30.385 2.97067 30.0782 2.43089 29.6767 2.05968C29.279 1.68847 28.7998 1.50286 28.2392 1.50286C27.3983 1.50286 26.7411 1.91764 26.2676 2.74718C25.7941 3.57294 25.5574 4.7415 25.5574 6.25286C25.5574 7.26044 25.6634 8.1165 25.8755 8.82104C26.0877 9.52559 26.3926 10.0616 26.7903 10.429C27.1918 10.7964 27.6748 10.9801 28.2392 10.9801ZM34.4437 12.071V11.0483L38.2846 6.84377C38.7354 6.35135 39.1066 5.92332 39.3983 5.55968C39.6899 5.19226 39.9058 4.84756 40.046 4.52559C40.1899 4.19983 40.2619 3.85892 40.2619 3.50286C40.2619 3.09377 40.1634 2.73961 39.9665 2.44036C39.7733 2.14112 39.5081 1.91006 39.171 1.74718C38.8339 1.5843 38.4551 1.50286 38.0346 1.50286C37.5877 1.50286 37.1975 1.59567 36.8642 1.78127C36.5346 1.96309 36.279 2.21877 36.0971 2.54832C35.9191 2.87786 35.8301 3.26423 35.8301 3.70741H34.4892C34.4892 3.02559 34.6464 2.42711 34.9608 1.91195C35.2752 1.3968 35.7032 0.995287 36.2449 0.707408C36.7903 0.419529 37.4021 0.27559 38.0801 0.27559C38.7619 0.27559 39.3661 0.419529 39.8926 0.707408C40.4191 0.995287 40.832 1.38354 41.1312 1.87218C41.4305 2.36082 41.5801 2.90438 41.5801 3.50286C41.5801 3.93089 41.5024 4.34945 41.3471 4.75854C41.1956 5.16385 40.9305 5.6165 40.5517 6.1165C40.1767 6.61271 39.6558 7.21877 38.9892 7.93468L36.3755 10.7301V10.821H41.7846V12.071H34.4437ZM44.1312 12.071V11.0483L47.9721 6.84377C48.4229 6.35135 48.7941 5.92332 49.0858 5.55968C49.3774 5.19226 49.5933 4.84756 49.7335 4.52559C49.8774 4.19983 49.9494 3.85892 49.9494 3.50286C49.9494 3.09377 49.8509 2.73961 49.654 2.44036C49.4608 2.14112 49.1956 1.91006 48.8585 1.74718C48.5214 1.5843 48.1426 1.50286 47.7221 1.50286C47.2752 1.50286 46.885 1.59567 46.5517 1.78127C46.2221 1.96309 45.9665 2.21877 45.7846 2.54832C45.6066 2.87786 45.5176 3.26423 45.5176 3.70741H44.1767C44.1767 3.02559 44.3339 2.42711 44.6483 1.91195C44.9627 1.3968 45.3907 0.995287 45.9324 0.707408C46.4778 0.419529 47.0896 0.27559 47.7676 0.27559C48.4494 0.27559 49.0536 0.419529 49.5801 0.707408C50.1066 0.995287 50.5195 1.38354 50.8187 1.87218C51.118 2.36082 51.2676 2.90438 51.2676 3.50286C51.2676 3.93089 51.1899 4.34945 51.0346 4.75854C50.8831 5.16385 50.618 5.6165 50.2392 6.1165C49.8642 6.61271 49.3433 7.21877 48.6767 7.93468L46.063 10.7301V10.821H51.4721V12.071H44.1312ZM60.9096 12.2756C60.3566 12.2756 59.8547 12.1714 59.404 11.9631C58.9532 11.751 58.5952 11.446 58.3301 11.0483C58.0649 10.6468 57.9324 10.162 57.9324 9.59377C57.9324 9.09377 58.0308 8.68847 58.2278 8.37786C58.4248 8.06347 58.688 7.81726 59.0176 7.63923C59.3471 7.4612 59.7108 7.32862 60.1085 7.2415C60.51 7.15059 60.9134 7.07862 61.3187 7.02559C61.849 6.95741 62.279 6.90627 62.6085 6.87218C62.9418 6.8343 63.1843 6.7718 63.3358 6.68468C63.4911 6.59756 63.5687 6.44604 63.5687 6.23014V6.18468C63.5687 5.62407 63.4153 5.18847 63.1085 4.87786C62.8055 4.56726 62.3452 4.41195 61.7278 4.41195C61.0877 4.41195 60.5858 4.55211 60.2221 4.83241C59.8585 5.11271 59.6028 5.41195 59.4551 5.73014L58.1824 5.27559C58.4096 4.74529 58.7127 4.33241 59.0915 4.03695C59.474 3.73771 59.8907 3.52938 60.3415 3.41195C60.796 3.29074 61.243 3.23014 61.6824 3.23014C61.9627 3.23014 62.2846 3.26423 62.6483 3.33241C63.0157 3.3968 63.3699 3.53127 63.7108 3.73582C64.0555 3.94036 64.3415 4.24908 64.5687 4.66195C64.796 5.07483 64.9096 5.62786 64.9096 6.32104V12.071H63.5687V10.8892H63.5005C63.4096 11.0786 63.2581 11.2813 63.046 11.4972C62.8339 11.7131 62.5517 11.8968 62.1994 12.0483C61.8471 12.1998 61.4172 12.2756 60.9096 12.2756ZM61.1142 11.071C61.6445 11.071 62.0915 10.9669 62.4551 10.7585C62.8225 10.5502 63.099 10.2813 63.2846 9.95173C63.474 9.62218 63.5687 9.27559 63.5687 8.91195V7.68468C63.5119 7.75286 63.3869 7.81536 63.1937 7.87218C63.0043 7.92521 62.7846 7.97256 62.5346 8.01423C62.2884 8.05211 62.0479 8.0862 61.813 8.1165C61.582 8.14301 61.3945 8.16574 61.2505 8.18468C60.9021 8.23014 60.5763 8.304 60.2733 8.40627C59.974 8.50476 59.7316 8.65438 59.546 8.85514C59.3642 9.05211 59.2733 9.32104 59.2733 9.66195C59.2733 10.1279 59.4456 10.4801 59.7903 10.7188C60.1388 10.9536 60.5801 11.071 61.1142 11.071ZM67.3571 15.3438V3.34377H68.6525V4.73014H68.8116C68.9101 4.57862 69.0465 4.38544 69.2207 4.15059C69.3987 3.91195 69.6525 3.69983 69.9821 3.51423C70.3154 3.32483 70.7662 3.23014 71.3344 3.23014C72.0692 3.23014 72.7169 3.41385 73.2775 3.78127C73.8381 4.1487 74.2756 4.66953 74.59 5.34377C74.9044 6.01801 75.0616 6.81347 75.0616 7.73014C75.0616 8.65438 74.9044 9.45551 74.59 10.1335C74.2756 10.8078 73.84 11.3305 73.2832 11.7017C72.7264 12.0692 72.0844 12.2529 71.3571 12.2529C70.7965 12.2529 70.3476 12.1601 70.0105 11.9745C69.6734 11.7851 69.4139 11.571 69.2321 11.3324C69.0503 11.09 68.9101 10.8892 68.8116 10.7301H68.698V15.3438H67.3571ZM68.6753 7.70741C68.6753 8.3665 68.7719 8.94794 68.965 9.45173C69.1582 9.95173 69.4404 10.3438 69.8116 10.6279C70.1828 10.9082 70.6374 11.0483 71.1753 11.0483C71.7359 11.0483 72.2037 10.9006 72.5787 10.6051C72.9575 10.3059 73.2415 9.90438 73.4309 9.40059C73.6241 8.89301 73.7207 8.32862 73.7207 7.70741C73.7207 7.09377 73.626 6.54074 73.4366 6.04832C73.251 5.55211 72.9688 5.16006 72.59 4.87218C72.215 4.58051 71.7434 4.43468 71.1753 4.43468C70.6298 4.43468 70.1715 4.57294 69.8003 4.84945C69.429 5.12218 69.1487 5.50476 68.9594 5.99718C68.77 6.48582 68.6753 7.05589 68.6753 7.70741ZM77.7477 3.34377L79.8386 6.91195L81.9295 3.34377H83.475L80.6568 7.70741L83.475 12.071H81.9295L79.8386 8.68468L77.7477 12.071H76.2022L78.975 7.70741L76.2022 3.34377H77.7477Z" fill="white"/>
</svg>
