<svg width="50" height="46" viewBox="0 0 50 46" fill="none" xmlns="http://www.w3.org/2000/svg">
<g clip-path="url(#clip0_5_148)">
<path fill-rule="evenodd" clip-rule="evenodd" d="M18.3777 41.254C18.6935 41.254 19.2615 40.9712 19.2615 40.25C19.2615 39.5287 18.6935 39.246 18.3777 39.246C18.0618 39.246 17.4938 39.5287 17.4938 40.25C17.4938 40.9712 18.0618 41.254 18.3777 41.254ZM13.4099 40.25C13.4099 37.4117 15.8063 35.4127 18.3777 35.4127C20.949 35.4127 23.3454 37.4117 23.3454 40.25C23.3454 43.0883 20.949 45.0873 18.3777 45.0873C15.8063 45.0873 13.4099 43.0883 13.4099 40.25Z" fill="black"/>
<path fill-rule="evenodd" clip-rule="evenodd" d="M40.8392 41.254C41.1551 41.254 41.7231 40.9712 41.7231 40.25C41.7231 39.5287 41.1551 39.246 40.8392 39.246C40.5234 39.246 39.9554 39.5287 39.9554 40.25C39.9554 40.9712 40.5234 41.254 40.8392 41.254ZM35.8715 40.25C35.8715 37.4117 38.2679 35.4127 40.8392 35.4127C43.4106 35.4127 45.807 37.4117 45.807 40.25C45.807 43.0883 43.4106 45.0873 40.8392 45.0873C38.2679 45.0873 35.8715 43.0883 35.8715 40.25Z" fill="black"/>
<path fill-rule="evenodd" clip-rule="evenodd" d="M-0.883789 1.91667C-0.883789 0.303645 0.426134 -1.00397 2.04201 -1.00397H10.2098L13.0715 1.30861L14.6219 8.57937H46.9651L49.8326 12.0805L46.5654 28.1614L46.5606 28.1844C46.2226 29.7819 45.3051 31.1771 44.0191 32.1488C42.7445 33.1118 41.1779 33.6094 39.5911 33.5873H19.7892C18.2024 33.6094 16.6358 33.1118 15.3613 32.1488C14.0761 31.1777 13.1589 29.7837 12.8203 28.1875C12.8201 28.1865 12.8199 28.1855 12.8197 28.1844L9.41515 12.2183C9.39721 12.1475 9.38186 12.0756 9.36921 12.0028L7.84128 4.8373H2.04201C0.426134 4.8373 -0.883789 3.52969 -0.883789 1.91667ZM15.8675 14.4206L18.5449 26.9772C18.5804 27.1446 18.6857 27.3348 18.8929 27.4913C19.1037 27.6506 19.3939 27.7523 19.7135 27.7465L19.7662 27.746H39.6141L39.6668 27.7465C39.9864 27.7523 40.2767 27.6506 40.4874 27.4913C40.6917 27.337 40.797 27.15 40.8338 26.9843L43.3864 14.4206H15.8675Z" fill="black"/>
</g>
<defs>
<clipPath id="clip0_5_148">
<rect width="49.0071" height="46" fill="white"/>
</clipPath>
</defs>
</svg>
